<?xml version="1.0" encoding="UTF-8" standalone="no"?>
<!-- Generator: Adobe Illustrator 15.1.0, SVG Export Plug-In . SVG Version: 6.00 Build 0)  -->

<svg
   xmlns:osb="http://www.openswatchbook.org/uri/2009/osb"
   xmlns:dc="http://purl.org/dc/elements/1.1/"
   xmlns:cc="http://creativecommons.org/ns#"
   xmlns:rdf="http://www.w3.org/1999/02/22-rdf-syntax-ns#"
   xmlns:svg="http://www.w3.org/2000/svg"
   xmlns="http://www.w3.org/2000/svg"
   xmlns:sodipodi="http://sodipodi.sourceforge.net/DTD/sodipodi-0.dtd"
   xmlns:inkscape="http://www.inkscape.org/namespaces/inkscape"
   version="1.1"
   x="0px"
   y="0px"
   width="28px"
   height="32px"
   viewBox="0 0 28 32"
   style="enable-background:new 0 0 28 32;"
   xml:space="preserve"
   id="svg2"
   inkscape:version="0.48.4 r9939"
   sodipodi:docname="hash1.svg"><metadata
   id="metadata12"><rdf:RDF><cc:Work
       rdf:about=""><dc:format>image/svg+xml</dc:format><dc:type
         rdf:resource="http://purl.org/dc/dcmitype/StillImage" /></cc:Work></rdf:RDF></metadata><defs
   id="defs10"><linearGradient
     id="linearGradient3757"
     osb:paint="solid"><stop
       style="stop-color:#ff0000;stop-opacity:1;"
       offset="0"
       id="stop3759" /></linearGradient></defs><sodipodi:namedview
   pagecolor="#ffffff"
   bordercolor="#666666"
   borderopacity="1"
   objecttolerance="10"
   gridtolerance="10"
   guidetolerance="10"
   inkscape:pageopacity="0"
   inkscape:pageshadow="2"
   inkscape:window-width="1680"
   inkscape:window-height="1028"
   id="namedview8"
   showgrid="false"
   inkscape:zoom="7.375"
   inkscape:cx="-9.2542373"
   inkscape:cy="16"
   inkscape:window-x="1272"
   inkscape:window-y="-8"
   inkscape:window-maximized="1"
   inkscape:current-layer="hash" />
<g
   id="Layer_1">
</g>
<g
   id="hash">
	<path
   style="fill:#0078cf;fill-opacity:1;fill-rule:nonzero"
   d="M28,12V8h-5.004l1-8h-4l-1,8h-7.998l1-8h-4l-1,8H0v4h6.498L5.5,20H0v4h5l-1,8h4l1-8h8l-1.002,8H20   l1-8h7v-4h-6.5l0.996-8H28z M17.5,20h-8l0.998-8h7.998L17.5,20z"
   id="path6" />
<path
   style="fill:#78cfff;fill-opacity:1;fill-rule:nonzero"
   d="m 4.0891554,31.857627 c 5.609e-4,-0.01864 0.2136614,-1.711864 0.4735565,-3.762712 0.259895,-2.050847 0.4729955,-3.835593 0.4735564,-3.966101 C 5.037203,23.91134 4.82783,23.891525 2.5288136,23.891525 l -2.50847462,0 0,-1.898305 0,-1.898305 2.77966102,0 c 1.5288136,0 2.78012,-0.04576 2.7806808,-0.101695 5.61e-4,-0.05593 0.2136614,-1.779661 0.4735565,-3.830508 0.259895,-2.050848 0.4729955,-3.835593 0.4735565,-3.966102 9.43e-4,-0.219425 -0.2439508,-0.237288 -3.2532175,-0.237288 l -3.25423732,0 0,-1.9661017 0,-1.9661017 3.51033342,0 3.5103334,0 0.076441,-0.4406779 c 0.042043,-0.2423729 0.2731219,-2.0423729 0.5135093,-4 l 0.4370678,-3.55932206 1.9484027,0 1.948404,0 -0.07492,0.44067797 C 11.758934,1.2381716 11.00339,7.4355041 11.00339,7.7394508 l 0,0.2917032 4.031429,-0.035916 4.03143,-0.035916 0.499956,-3.9322034 c 0.274976,-2.1627118 0.5049,-3.94745758 0.510943,-3.96610165 0.006,-0.01864407 0.865225,-0.03389831 1.909293,-0.03389831 1.428792,0 1.898053,0.04192076 1.897285,0.16949153 -5.61e-4,0.0932203 -0.213661,1.84745763 -0.473557,3.89830513 -0.259895,2.0508474 -0.472995,3.7745762 -0.473556,3.8305084 -5.61e-4,0.055932 1.127794,0.1016949 2.507455,0.1016949 l 2.508474,0 0,1.9661017 0,1.9661017 -2.779661,0 c -1.684565,0 -2.779661,0.05126 -2.779661,0.130107 0,0.07156 -0.213278,1.856304 -0.473954,3.966102 -0.260673,2.109796 -0.474233,3.881757 -0.474576,3.937689 -3.42e-4,0.05593 1.463785,0.101695 3.253615,0.101695 l 3.254237,0 0,1.898305 0,1.898305 -3.501581,0 -3.501581,0 -0.437068,3.559322 c -0.240387,1.957628 -0.471466,3.757628 -0.513509,4 l -0.07644,0.440678 -1.883215,0 c -1.832906,0 -1.883215,-0.0077 -1.883215,-0.289685 0,-0.302502 0.75604,-6.502172 0.88652,-7.269637 l 0.07492,-0.440678 -4.059242,0 -4.0592417,0 -0.06997,0.305085 c -0.038483,0.167797 -0.2719929,1.967797 -0.5189103,4 l -0.4489406,3.694915 -1.936467,0 c -1.0650568,0 -1.936008,-0.01525 -1.9354472,-0.0339 z M 18.006376,16.433898 C 18.246228,14.457627 18.473315,12.642373 18.511016,12.4 l 0.06855,-0.440678 -4.059272,0 c -2.2326,0 -4.061932,0.01525 -4.065183,0.0339 -0.0033,0.01864 -0.236118,1.850032 -0.5174806,4.069748 l -0.5115687,4.03585 4.0721123,-0.03585 4.072112,-0.03585 0.436095,-3.593221 z"
   id="path3763"
   inkscape:connector-curvature="0" /></g>
</svg>